<?xml version="1.0" standalone="no"?>
<!DOCTYPE svg PUBLIC "-//W3C//DTD SVG 20010904//EN"
 "http://www.w3.org/TR/2001/REC-SVG-20010904/DTD/svg10.dtd">
<svg version="1.0" xmlns="http://www.w3.org/2000/svg"
 width="160.000000pt" height="160.000000pt" viewBox="0 0 160.000000 160.000000"
 preserveAspectRatio="xMidYMid meet">
<metadata>
Created by potrace 1.14, written by Peter Selinger 2001-2017
</metadata>
<g transform="translate(0.000000,160.000000) scale(0.100000,-0.100000)"
fill="#000000" stroke="none">
<path d="M650 1381 c0 -10 29 -36 34 -30 1 2 -6 12 -16 22 -10 9 -18 13 -18 8z"/>
<path d="M859 1378 c-8 -27 -5 -36 9 -30 10 4 12 7 4 10 -7 2 -10 8 -6 13 3 5
3 9 0 9 -3 0 -6 -1 -7 -2z"/>
<path d="M580 1355 c-7 -8 -9 -15 -4 -15 11 -1 -27 -30 -39 -30 -4 0 -6 4 -3
8 3 5 -1 9 -9 9 -8 0 -12 -4 -9 -8 2 -4 1 -9 -3 -12 -5 -2 -2 -2 5 -1 6 2 12
0 12 -5 0 -4 7 -8 15 -8 8 0 12 4 9 9 -11 18 10 7 32 -17 26 -29 20 -34 -9 -7
-17 14 -19 15 -15 1 7 -19 -20 -22 -42 -4 -18 15 -68 41 -58 30 9 -10 -10 -35
-25 -35 -7 0 -7 4 1 12 7 7 12 17 12 23 -1 12 -23 -25 -26 -42 -2 -9 3 -10 16
-3 9 5 21 6 25 2 5 -4 5 -2 2 4 -4 6 2 10 13 9 27 -2 38 -15 12 -15 -11 0 -24
-5 -27 -10 -4 -6 -10 -8 -15 -5 -5 3 -25 -10 -44 -30 -19 -19 -41 -35 -48 -35
-10 0 -10 2 1 9 7 5 9 11 5 13 -5 3 -3 3 4 1 7 -1 10 2 7 7 -8 14 -18 13 -41
-5 -19 -15 -19 -15 1 -8 18 6 18 5 6 -10 -11 -13 -17 -15 -28 -6 -11 10 -12 9
-7 -5 7 -19 16 -20 32 -4 9 9 12 9 12 -1 0 -7 5 -9 12 -5 7 4 8 3 4 -5 -4 -6
-12 -8 -18 -5 -6 4 -8 -1 -4 -14 4 -11 3 -23 -2 -26 -5 -3 -8 -19 -7 -35 2
-23 -1 -28 -14 -23 -13 4 -12 1 3 -16 19 -22 19 -22 0 -44 -17 -19 -17 -21 -1
-15 9 4 17 2 17 -3 0 -6 -7 -10 -15 -10 -19 0 -19 -14 -1 -29 20 -17 17 -51
-4 -43 -13 5 -13 3 1 -14 21 -25 21 -54 0 -46 -14 5 -14 3 0 -14 21 -25 21
-54 0 -46 -14 5 -14 3 0 -14 20 -23 21 -51 2 -51 -7 0 -13 5 -13 11 0 6 -5 4
-10 -4 -5 -8 -10 -10 -10 -4 0 5 6 16 13 23 10 11 9 12 -2 6 -10 -6 -12 -4 -6
5 5 8 4 11 -2 7 -5 -3 -10 0 -10 8 0 8 5 11 10 8 6 -4 7 -1 2 7 -5 8 -4 11 2
7 12 -7 11 53 -1 72 -7 11 -6 12 5 6 12 -8 12 -6 0 8 -7 9 -18 14 -24 10 -6
-3 -7 -1 -3 6 4 6 12 8 18 5 7 -4 8 -2 4 4 -10 17 -23 15 -30 -5 -4 -10 -1
-20 9 -26 15 -8 15 -11 -2 -30 -10 -12 -14 -19 -9 -15 11 10 38 -11 30 -23 -3
-5 -10 -9 -15 -9 -6 0 -7 5 -4 10 3 6 1 10 -5 10 -8 0 -9 -7 -5 -17 4 -10 7
-26 7 -35 0 -10 3 -18 8 -18 5 0 7 -7 3 -16 -4 -11 -8 -12 -13 -4 -6 10 -12
10 -26 0 -15 -9 -15 -10 -2 -6 17 5 41 -16 44 -40 1 -8 -2 -14 -7 -14 -5 0 -9
6 -9 14 0 8 -4 17 -9 20 -5 4 -7 -4 -4 -16 4 -22 4 -23 -11 -4 -9 11 -16 15
-16 9 0 -7 6 -15 13 -20 33 -21 68 -5 62 28 -3 16 -1 17 15 9 10 -6 18 -19 17
-30 -1 -14 -4 -16 -14 -8 -15 12 -18 -3 -3 -18 8 -8 5 -15 -7 -25 -16 -13 -17
-12 -5 3 9 11 10 18 2 23 -5 3 -10 -1 -10 -11 0 -13 -3 -14 -15 -4 -9 7 -15 8
-15 2 0 -5 7 -12 15 -16 8 -3 15 -11 15 -17 0 -8 -4 -8 -15 1 -9 7 -15 8 -15
2 0 -5 8 -13 17 -16 14 -6 15 -9 4 -16 -12 -7 -12 -12 3 -34 17 -27 10 -36
-12 -14 -9 9 -12 9 -12 0 0 -7 5 -12 11 -12 5 0 7 -4 4 -10 -3 -6 1 -7 10 -4
17 7 17 -16 0 -28 -15 -12 7 -10 25 2 13 9 13 10 0 10 -13 0 -13 1 0 10 13 9
13 10 0 10 -13 0 -13 1 0 10 9 6 10 10 3 10 -7 0 -17 10 -24 21 -7 14 -7 19
-1 15 7 -4 9 2 7 15 -3 16 -1 18 9 10 7 -6 17 -7 22 -3 4 4 3 0 -4 -10 -7 -9
-9 -19 -4 -22 12 -7 8 -137 -6 -163 -15 -27 -15 -33 -1 -33 5 0 8 3 5 8 -2 4
1 18 8 31 13 23 13 23 19 2 3 -14 1 -19 -6 -15 -7 3 -4 -1 6 -9 11 -9 15 -22
11 -33 -4 -13 -3 -15 3 -7 7 10 13 8 25 -6 9 -10 24 -24 34 -30 18 -11 18 -11
0 -26 -11 -8 -15 -15 -9 -15 6 0 16 7 23 15 10 12 16 13 26 4 8 -6 14 -8 14
-4 0 4 6 3 13 -2 6 -5 40 -8 74 -8 34 1 60 -2 57 -6 -2 -4 0 -10 6 -14 6 -4 8
-11 5 -16 -4 -5 -1 -9 4 -9 14 0 14 17 1 25 -6 4 -8 11 -4 16 3 6 12 2 19 -8
11 -15 16 -16 27 -5 11 11 10 12 -7 6 -12 -4 -17 -3 -12 2 5 5 44 9 88 10 79
1 86 -2 80 -39 0 -4 3 -7 9 -7 5 0 9 10 7 22 -1 17 4 23 21 24 12 1 22 -3 22
-9 0 -6 4 -6 13 1 7 5 62 9 127 8 128 -2 201 12 236 44 12 12 27 19 33 16 7
-5 8 -1 4 9 -3 10 0 21 7 25 8 5 15 19 17 32 2 13 8 24 13 26 5 2 6 10 3 19
-5 12 -3 14 7 8 10 -6 11 -4 4 6 -14 23 -13 61 3 55 7 -3 13 -1 13 4 0 6 -6
10 -13 10 -9 0 -12 52 -13 229 0 160 3 228 10 224 6 -3 5 0 -1 8 -15 15 -17
33 -4 24 5 -3 13 -1 16 5 4 6 1 9 -7 8 -18 -4 -17 45 2 54 12 5 12 7 -2 7 -10
1 -18 7 -19 14 -2 41 -22 89 -47 115 -7 8 -10 17 -7 22 3 5 0 12 -6 16 -8 5
-9 3 -4 -6 6 -10 4 -12 -9 -7 -10 4 -21 7 -24 7 -4 0 0 5 8 11 12 9 11 10 -7
6 -12 -3 -30 1 -40 7 -10 7 -43 12 -75 11 -51 0 -55 1 -47 17 5 10 6 18 2 18
-4 0 1 7 11 15 11 8 15 15 9 15 -13 0 -45 -35 -38 -42 3 -3 -1 -11 -9 -17 -13
-11 -14 -10 -11 6 8 36 12 58 8 46 -3 -7 -9 -13 -14 -13 -6 0 -7 5 -3 12 5 7
3 8 -7 2 -20 -12 -51 -16 -45 -5 3 5 -1 12 -9 15 -13 5 -14 2 -4 -17 11 -20
11 -21 -4 -8 -10 7 -17 10 -17 5 -1 -5 -10 2 -22 16 -13 15 -19 18 -15 8 3
-10 2 -20 -3 -23 -6 -4 -10 -1 -10 4 0 6 -10 11 -22 10 -22 0 -22 -1 -3 -9 11
-5 16 -9 10 -10 -5 -1 -14 -3 -20 -5 -5 -1 -16 -3 -23 -3 -7 -1 -10 -7 -7 -12
4 -7 11 -7 18 -2 7 5 20 8 29 7 10 -2 20 1 24 6 3 5 11 6 17 2 7 -4 27 -8 45
-8 18 0 38 -7 44 -15 8 -12 9 -12 4 2 -3 10 -1 20 4 23 6 4 10 -5 10 -19 0
-29 -14 -34 -28 -10 -8 14 -10 14 -25 -1 -15 -15 -18 -15 -23 -1 -3 9 -10 13
-15 10 -5 -3 -7 -10 -4 -15 3 -5 -1 -6 -10 -2 -14 5 -14 8 -3 15 9 7 8 8 -7 5
-11 -2 -19 -8 -18 -15 2 -6 -4 -9 -12 -6 -8 4 -15 10 -15 16 0 5 -5 6 -10 3
-6 -4 -8 -11 -5 -16 3 -5 -1 -6 -9 -3 -9 3 -16 10 -16 16 0 5 -5 6 -10 3 -6
-4 -7 -11 -4 -17 4 -6 -1 -6 -14 1 -12 6 -24 17 -28 24 -4 6 -4 9 1 5 8 -8 45
8 45 20 0 4 -9 13 -20 20 -11 7 -20 9 -19 5 3 -20 -2 -34 -11 -28 -5 3 -8 11
-6 18 1 7 1 9 -1 4 -3 -4 -9 -5 -14 -1 -21 13 -50 12 -56 -2 -4 -12 -12 -9
-42 13 -20 15 -30 20 -23 11 10 -13 10 -17 0 -22 -9 -4 -9 -5 2 -5 30 2 43 -1
36 -8 -4 -4 -15 -8 -24 -8 -9 0 -16 -5 -15 -12 3 -16 -25 -25 -33 -11 -4 7 -2
14 4 16 7 2 12 9 12 15 0 8 -4 7 -12 -1 -16 -16 -33 -15 -19 1 6 8 7 18 3 22
-4 5 1 5 10 2 12 -4 15 -2 11 9 -6 18 -8 17 -23 -1z m179 -40 c14 -13 13 -15
-2 -15 -10 0 -16 4 -13 8 2 4 -6 8 -19 8 -13 0 -21 -4 -18 -10 4 -5 1 -6 -7
-1 -9 5 -11 4 -6 -4 6 -9 11 -9 22 0 8 6 14 10 15 8 0 -2 2 -14 3 -27 3 -21 2
-22 -22 -6 -24 15 -25 15 -18 -1 6 -17 5 -17 -20 0 -23 14 -26 15 -21 2 3 -9
0 -14 -8 -13 -24 3 -29 15 -11 22 14 5 15 9 4 16 -10 8 -9 9 4 4 10 -3 20 -1
23 5 4 5 11 7 16 4 5 -4 12 0 15 9 7 18 41 13 63 -9z m45 6 c3 -5 -1 -11 -9
-14 -9 -4 -12 -1 -8 9 6 16 10 17 17 5z m-31 -45 c4 -10 1 -13 -9 -9 -7 3 -14
9 -14 14 0 14 17 10 23 -5z m-476 -441 c0 -8 -4 -12 -9 -9 -5 3 -6 10 -3 15 9
13 12 11 12 -6z m37 -230 c-7 -16 -24 -21 -24 -6 0 8 7 13 27 20 1 1 0 -6 -3
-14z"/>
<path d="M666 1301 c-4 -5 -2 -12 3 -15 5 -4 12 -2 15 3 4 5 2 12 -3 15 -5 4
-12 2 -15 -3z"/>
<path d="M952 1359 c-19 -7 -23 -29 -6 -29 3 0 2 5 -1 10 -3 6 1 10 9 10 8 0
18 5 21 10 7 12 7 12 -23 -1z"/>
<path d="M997 1356 c-4 -11 -1 -13 10 -9 12 5 14 3 8 -7 -5 -9 -4 -11 4 -6 9
6 9 11 0 22 -14 17 -16 17 -22 0z"/>
<path d="M800 1356 c0 -2 7 -7 16 -10 8 -3 12 -2 9 4 -6 10 -25 14 -25 6z"/>
<path d="M1070 1339 c0 -5 5 -7 10 -4 6 3 10 8 10 11 0 2 -4 4 -10 4 -5 0 -10
-5 -10 -11z"/>
<path d="M1125 1339 c-4 -6 -4 -13 -1 -16 3 -4 6 -1 6 6 0 7 5 9 12 5 7 -4 8
-3 4 4 -9 15 -13 15 -21 1z"/>
<path d="M403 1319 c9 -6 14 -15 11 -21 -4 -7 -2 -8 5 -4 14 9 -3 36 -23 36
-6 0 -3 -5 7 -11z"/>
<path d="M476 1318 c3 -5 10 -6 15 -3 13 9 11 12 -6 12 -8 0 -12 -4 -9 -9z"/>
<path d="M813 1304 c-12 -13 -19 -24 -14 -24 4 0 18 11 31 25 13 14 19 25 14
24 -5 -1 -19 -12 -31 -25z"/>
<path d="M1096 1294 c-8 -22 -8 -24 6 -24 6 0 8 3 5 7 -4 3 -2 12 4 20 7 8 8
13 1 13 -5 0 -13 -7 -16 -16z"/>
<path d="M1125 1291 c-3 -8 -3 -12 1 -8 4 4 13 2 20 -4 10 -8 20 -6 40 10 15
12 22 21 16 21 -6 0 -17 -7 -26 -15 -18 -19 -30 -19 -23 -2 3 8 -1 14 -9 14
-7 0 -16 -7 -19 -16z"/>
<path d="M396 1275 c4 -10 2 -15 -6 -13 -7 2 -14 -5 -15 -14 -2 -10 1 -18 6
-18 6 0 7 -5 3 -11 -4 -7 1 -7 16 1 15 8 19 15 12 22 -6 6 -8 16 -6 23 3 7 1
16 -5 20 -7 4 -8 0 -5 -10z m4 -30 c7 -9 8 -15 2 -15 -5 0 -12 7 -16 15 -3 8
-4 15 -2 15 2 0 9 -7 16 -15z"/>
<path d="M526 1278 c3 -4 9 -8 15 -8 5 0 9 4 9 8 0 5 -7 9 -15 9 -8 0 -12 -4
-9 -9z"/>
<path d="M1200 1282 c0 -5 7 -15 15 -22 8 -7 15 -9 15 -6 0 4 -7 14 -15 22 -8
9 -15 11 -15 6z"/>
<path d="M341 1244 c0 -11 3 -14 6 -6 3 7 2 16 -1 19 -3 4 -6 -2 -5 -13z"/>
<path d="M305 1220 c-3 -6 1 -7 9 -4 18 7 21 14 7 14 -6 0 -13 -4 -16 -10z"/>
<path d="M1320 1206 c0 -2 8 -10 18 -17 15 -13 16 -12 3 4 -13 16 -21 21 -21
13z"/>
<path d="M292 1160 c3 -25 -13 -61 -24 -54 -7 5 -8 2 -3 -6 6 -10 11 -9 22 5
7 11 13 22 13 27 0 4 7 5 16 1 9 -3 12 -9 7 -12 -4 -3 -21 -22 -38 -41 -29
-33 -29 -34 -2 -11 15 14 27 20 27 14 0 -6 -7 -16 -15 -23 -11 -9 -12 -16 -5
-25 6 -7 8 -20 4 -29 -8 -20 9 -21 26 -1 10 13 10 19 -5 35 -16 17 -16 20 -2
26 9 3 14 14 12 25 -2 10 0 21 5 24 5 3 7 12 4 20 -4 8 -10 13 -14 10 -5 -3
-14 3 -20 12 -7 13 -10 14 -8 3z m19 -152 c-11 -11 -13 -10 -7 0 4 7 2 21 -5
30 -12 15 -11 15 6 0 16 -15 17 -20 6 -30z"/>
<path d="M1350 1150 c-9 -6 -10 -10 -3 -10 6 0 15 5 18 10 8 12 4 12 -15 0z"/>
<path d="M236 1078 c3 -5 10 -6 15 -3 13 9 11 12 -6 12 -8 0 -12 -4 -9 -9z"/>
<path d="M206 1062 c-3 -5 1 -9 9 -9 8 0 12 4 9 9 -3 4 -7 8 -9 8 -2 0 -6 -4
-9 -8z"/>
<path d="M270 1020 c0 -5 5 -10 10 -10 6 0 10 5 10 10 0 6 -4 10 -10 10 -5 0
-10 -4 -10 -10z"/>
<path d="M1358 1023 c7 -3 16 -2 19 1 4 3 -2 6 -13 5 -11 0 -14 -3 -6 -6z"/>
<path d="M244 999 c-3 -6 -2 -15 3 -20 5 -5 9 -1 9 11 0 23 -2 24 -12 9z"/>
<path d="M1393 995 c0 -8 4 -12 9 -9 5 3 6 10 3 15 -9 13 -12 11 -12 -6z"/>
<path d="M274 988 c3 -10 -2 -22 -12 -27 -9 -6 -12 -11 -7 -11 6 0 16 5 23 12
9 9 12 9 12 1 0 -7 -4 -15 -10 -18 -5 -3 -10 -12 -10 -18 0 -7 5 -4 11 6 6 9
15 15 21 11 7 -5 7 -8 0 -13 -6 -4 -8 -12 -4 -18 5 -8 13 -9 22 -3 12 7 11 12
-4 29 -10 11 -15 25 -10 32 4 7 3 10 -4 5 -6 -3 -16 2 -22 11 -10 16 -11 16
-6 1z"/>
<path d="M1359 948 c-9 -30 -6 -37 12 -28 23 13 25 22 2 13 -11 -4 -14 -3 -9
5 4 7 5 12 2 12 -3 0 -6 -1 -7 -2z"/>
<path d="M1407 919 c7 -7 15 -10 18 -7 3 3 -2 9 -12 12 -14 6 -15 5 -6 -5z"/>
<path d="M238 913 c7 -3 16 -2 19 1 4 3 -2 6 -13 5 -11 0 -14 -3 -6 -6z"/>
<path d="M1376 898 c3 -5 10 -6 15 -3 13 9 11 12 -6 12 -8 0 -12 -4 -9 -9z"/>
<path d="M1350 891 c0 -5 7 -12 16 -15 14 -5 15 -4 4 9 -14 17 -20 19 -20 6z"/>
<path d="M307 879 c7 -9 10 -19 6 -22 -3 -4 -1 -7 5 -7 17 0 15 16 -5 31 -16
12 -17 12 -6 -2z"/>
<path d="M1353 845 c0 -8 4 -12 9 -9 4 3 8 9 8 15 0 5 -4 9 -8 9 -5 0 -9 -7
-9 -15z"/>
<path d="M239 840 c-1 -5 -2 -20 -3 -32 -1 -13 -8 -22 -15 -20 -7 1 -9 -2 -6
-9 11 -17 28 6 31 41 2 27 -4 44 -7 20z"/>
<path d="M1389 837 c6 -8 7 -18 3 -22 -4 -5 -1 -5 6 -1 10 6 10 11 1 22 -6 8
-14 14 -16 14 -3 0 0 -6 6 -13z"/>
<path d="M313 805 c0 -8 4 -15 9 -15 4 0 8 4 8 9 0 6 -4 12 -8 15 -5 3 -9 -1
-9 -9z"/>
<path d="M1359 788 c-9 -30 -6 -37 12 -28 23 13 25 22 2 13 -11 -4 -14 -3 -9
5 4 7 5 12 2 12 -3 0 -6 -1 -7 -2z"/>
<path d="M307 759 c7 -9 10 -19 6 -22 -3 -4 -1 -7 5 -7 17 0 15 16 -5 31 -16
12 -17 12 -6 -2z"/>
<path d="M1407 759 c7 -7 15 -10 18 -7 3 3 -2 9 -12 12 -14 6 -15 5 -6 -5z"/>
<path d="M1376 738 c3 -5 10 -6 15 -3 13 9 11 12 -6 12 -8 0 -12 -4 -9 -9z"/>
<path d="M1350 731 c0 -9 30 -24 36 -18 2 1 -6 8 -16 15 -11 7 -20 8 -20 3z"/>
<path d="M1353 685 c0 -8 4 -12 9 -9 4 3 8 9 8 15 0 5 -4 9 -8 9 -5 0 -9 -7
-9 -15z"/>
<path d="M315 680 c3 -5 8 -10 11 -10 2 0 4 5 4 10 0 6 -5 10 -11 10 -5 0 -7
-4 -4 -10z"/>
<path d="M240 631 c0 -6 4 -13 10 -16 6 -3 7 1 4 9 -7 18 -14 21 -14 7z"/>
<path d="M1355 620 c-3 -6 1 -13 9 -16 9 -3 13 -11 9 -18 -3 -6 -2 -7 2 -3 16
14 14 36 -3 30 -10 -4 -13 -2 -8 5 4 7 5 12 2 12 -3 0 -8 -5 -11 -10z"/>
<path d="M241 581 c-9 -6 -10 -11 -2 -15 6 -4 11 -2 11 4 0 6 5 8 12 4 7 -4 8
-3 4 4 -8 14 -7 14 -25 3z"/>
<path d="M246 538 c3 -5 10 -6 15 -3 13 9 11 12 -6 12 -8 0 -12 -4 -9 -9z"/>
<path d="M310 540 c0 -5 5 -10 11 -10 5 0 7 5 4 10 -3 6 -8 10 -11 10 -2 0 -4
-4 -4 -10z"/>
<path d="M1358 543 c7 -3 16 -2 19 1 4 3 -2 6 -13 5 -11 0 -14 -3 -6 -6z"/>
<path d="M210 519 c0 -5 5 -7 10 -4 6 3 10 8 10 11 0 2 -4 4 -10 4 -5 0 -10
-5 -10 -11z"/>
<path d="M250 500 c0 -5 5 -10 11 -10 5 0 7 5 4 10 -3 6 -8 10 -11 10 -2 0 -4
-4 -4 -10z"/>
<path d="M266 463 c-6 -14 -5 -15 5 -6 7 7 10 15 7 18 -3 3 -9 -2 -12 -12z"/>
<path d="M280 440 c-13 -8 -12 -10 3 -10 9 0 17 5 17 10 0 12 -1 12 -20 0z"/>
<path d="M1375 429 c-4 -6 -5 -12 -2 -15 2 -3 7 2 10 11 7 17 1 20 -8 4z"/>
<path d="M310 419 c0 -5 5 -7 10 -4 6 3 10 8 10 11 0 2 -4 4 -10 4 -5 0 -10
-5 -10 -11z"/>
<path d="M276 399 c3 -5 9 -7 14 -4 4 3 11 0 13 -5 3 -6 4 -5 3 1 -1 7 -10 13
-19 15 -9 1 -15 -2 -11 -7z"/>
<path d="M335 340 c-3 -5 -1 -10 4 -10 6 0 11 5 11 10 0 6 -2 10 -4 10 -3 0
-8 -4 -11 -10z"/>
<path d="M1320 340 c-9 -6 -10 -10 -3 -10 6 0 15 5 18 10 8 12 4 12 -15 0z"/>
<path d="M373 295 c0 -8 4 -12 9 -9 5 3 6 10 3 15 -9 13 -12 11 -12 -6z"/>
<path d="M350 281 c0 -6 4 -13 10 -16 6 -3 7 1 4 9 -7 18 -14 21 -14 7z"/>
<path d="M1250 259 c0 -5 5 -7 10 -4 6 3 10 8 10 11 0 2 -4 4 -10 4 -5 0 -10
-5 -10 -11z"/>
<path d="M584 230 c0 -13 4 -16 10 -10 7 7 7 13 0 20 -6 6 -10 3 -10 -10z"/>
<path d="M710 246 c0 -2 7 -9 15 -16 13 -11 14 -10 9 4 -5 14 -24 23 -24 12z"/>
<path d="M750 241 c0 -4 15 -7 34 -7 19 0 32 3 30 6 -8 8 -64 8 -64 1z"/>
<path d="M860 240 c0 -5 5 -10 11 -10 5 0 7 5 4 10 -3 6 -8 10 -11 10 -2 0 -4
-4 -4 -10z"/>
<path d="M915 241 c-3 -5 -2 -12 3 -15 5 -3 9 1 9 9 0 17 -3 19 -12 6z"/>
<path d="M940 239 c0 -3 9 -9 19 -12 13 -3 18 0 15 7 -5 13 -34 18 -34 5z"/>
<path d="M1003 239 c9 -6 22 -7 29 -3 8 5 9 2 5 -10 -4 -11 -3 -15 4 -11 18
12 4 28 -26 31 -24 2 -27 1 -12 -7z"/>
<path d="M1070 228 c-10 -21 -10 -21 3 -6 8 10 17 15 20 11 4 -3 7 -1 7 5 0
20 -19 13 -30 -10z"/>
<path d="M1233 235 c0 -8 4 -12 9 -9 5 3 6 10 3 15 -9 13 -12 11 -12 -6z"/>
<path d="M559 238 c-5 -18 -6 -38 -1 -34 7 8 12 36 6 36 -2 0 -4 -1 -5 -2z"/>
<path d="M890 220 c0 -5 5 -10 11 -10 5 0 7 5 4 10 -3 6 -8 10 -11 10 -2 0 -4
-4 -4 -10z"/>
<path d="M735 200 c3 -5 8 -10 11 -10 2 0 4 5 4 10 0 6 -5 10 -11 10 -5 0 -7
-4 -4 -10z"/>
</g>
</svg>
