<svg width="18" height="66" viewBox="0 0 18 66" fill="#575f6b" xmlns="http://www.w3.org/2000/svg">
    <path
        d="M8.66332 65.5C10.3445 65.5 11.9879 65.0015 13.3857 64.0675C14.7835 63.1335 15.873 61.806 16.5163 60.2528C17.1596 58.6996 17.328 56.9906 17 55.3417C16.672 53.6929 15.8625 52.1783 14.6737 50.9896C13.485 49.8008 11.9704 48.9913 10.3216 48.6633C8.67275 48.3354 6.96368 48.5037 5.41051 49.147C3.85734 49.7904 2.52982 50.8798 1.59583 52.2777C0.661839 53.6755 0.163322 55.3189 0.163322 57C0.163322 59.2543 1.05886 61.4164 2.65292 63.0104C4.24697 64.6045 6.40898 65.5 8.66332 65.5Z"
    />
    <path
        d="M8.5 43C10.1811 43 11.8245 41.739 13.2223 39.3766C14.6202 37.0141 15.7096 33.6563 16.353 29.7277C16.9963 25.7991 17.1646 21.4762 16.8367 17.3056C16.5087 13.135 15.6992 9.30404 14.5104 6.29721C13.3217 3.29038 11.8071 1.24271 10.1583 0.413126C8.50943 -0.416456 6.80036 0.0093156 5.24719 1.6366C3.69402 3.26388 2.3665 6.01959 1.43251 9.55525C0.498516 13.0909 0 17.2477 0 21.5C0 27.2022 0.895533 32.6708 2.48959 36.7028C4.08365 40.7348 6.24566 43 8.5 43Z"
    />

</svg>